<svg width="360" height="220" viewBox="0 0 360 220" xmlns="http://www.w3.org/2000/svg" role="img" aria-labelledby="t d">
  <title id="t">Mentoring session illustration</title>
  <desc id="d">Teacher guiding students in a class session.</desc>
  <defs>
    <linearGradient id="g2" x1="0" y1="0" x2="1" y2="1">
      <stop offset="0%" stop-color="#dbeafe"/>
      <stop offset="100%" stop-color="#ecfeff"/>
    </linearGradient>
  </defs>
  <rect width="360" height="220" rx="20" fill="url(#g2)"/>
  <rect x="22" y="34" width="196" height="118" rx="12" fill="#0f172a"/>
  <rect x="36" y="52" width="112" height="10" rx="5" fill="#38bdf8"/>
  <rect x="36" y="72" width="84" height="10" rx="5" fill="#22c55e"/>
  <rect x="36" y="92" width="132" height="10" rx="5" fill="#f59e0b"/>
  <circle cx="266" cy="78" r="28" fill="#dbeafe"/>
  <rect x="240" y="108" width="52" height="62" rx="10" fill="#eff6ff"/>
  <circle cx="314" cy="120" r="20" fill="#dcfce7"/>
  <rect x="296" y="138" width="36" height="42" rx="8" fill="#ecfeff"/>
  <circle cx="228" cy="120" r="20" fill="#dcfce7"/>
  <rect x="210" y="138" width="36" height="42" rx="8" fill="#ecfeff"/>
  <rect x="28" y="170" width="150" height="30" rx="9" fill="#ffffff"/>
  <text x="42" y="190" fill="#1e293b" font-family="Arial, sans-serif" font-size="13" font-weight="700">Goal-Based Mentoring</text>
</svg>
