<svg width="900" height="520" viewBox="0 0 900 520" xmlns="http://www.w3.org/2000/svg" role="img" aria-labelledby="title desc">
  <title id="title">Research and higher studies illustration</title>
  <desc id="desc">Student preparing research documents for postgraduate admission.</desc>
  <defs>
    <linearGradient id="bg3" x1="0" y1="0" x2="1" y2="1">
      <stop offset="0%" stop-color="#ede9fe"/>
      <stop offset="100%" stop-color="#e0f2fe"/>
    </linearGradient>
  </defs>
  <rect width="900" height="520" rx="26" fill="url(#bg3)"/>
  <rect x="74" y="86" width="752" height="346" rx="24" fill="#ffffff" stroke="#c4b5fd" stroke-width="3"/>
  <rect x="126" y="122" width="270" height="274" rx="16" fill="#f8fafc" stroke="#dbeafe" stroke-width="2"/>
  <rect x="156" y="158" width="210" height="18" rx="9" fill="#c4b5fd"/>
  <rect x="156" y="190" width="176" height="14" rx="7" fill="#e2e8f0"/>
  <rect x="156" y="218" width="198" height="14" rx="7" fill="#e2e8f0"/>
  <rect x="156" y="246" width="144" height="14" rx="7" fill="#e2e8f0"/>
  <circle cx="456" cy="194" r="74" fill="#dbeafe"/>
  <rect x="414" y="250" width="84" height="108" rx="14" fill="#eff6ff"/>
  <rect x="574" y="136" width="200" height="136" rx="14" fill="#ecfeff" stroke="#bae6fd" stroke-width="2"/>
  <text x="616" y="196" fill="#0f766e" font-size="34" font-family="Arial, sans-serif" font-weight="700">PG</text>
  <rect x="574" y="292" width="200" height="96" rx="14" fill="#0f766e"/>
  <text x="612" y="348" fill="#ffffff" font-size="28" font-family="Arial, sans-serif" font-weight="700">Admitted</text>
  <circle cx="738" cy="76" r="30" fill="#22c55e"/>
  <path d="M724 76l10 10 18-18" stroke="#ffffff" stroke-width="6" fill="none" stroke-linecap="round" stroke-linejoin="round"/>
</svg>
