<svg width="900" height="520" viewBox="0 0 900 520" xmlns="http://www.w3.org/2000/svg" role="img" aria-labelledby="title desc">
  <title id="title">Mentor coding class illustration</title>
  <desc id="desc">Teacher mentoring students in a coding session.</desc>
  <defs>
    <linearGradient id="bg2" x1="0" y1="0" x2="1" y2="1">
      <stop offset="0%" stop-color="#dbeafe"/>
      <stop offset="100%" stop-color="#ecfeff"/>
    </linearGradient>
  </defs>
  <rect width="900" height="520" rx="26" fill="url(#bg2)"/>
  <rect x="58" y="74" width="784" height="372" rx="24" fill="#ffffff" stroke="#bfdbfe" stroke-width="3"/>
  <rect x="106" y="118" width="420" height="210" rx="16" fill="#0f172a"/>
  <rect x="136" y="154" width="190" height="18" rx="9" fill="#38bdf8"/>
  <rect x="136" y="186" width="152" height="18" rx="9" fill="#22c55e"/>
  <rect x="136" y="218" width="246" height="18" rx="9" fill="#f59e0b"/>
  <rect x="136" y="250" width="116" height="18" rx="9" fill="#e2e8f0"/>
  <text x="360" y="305" fill="#93c5fd" font-size="36" font-family="Arial, sans-serif" font-weight="700">{ }</text>
  <circle cx="636" cy="176" r="54" fill="#dbeafe"/>
  <rect x="584" y="238" width="104" height="120" rx="18" fill="#eff6ff"/>
  <circle cx="744" cy="240" r="40" fill="#dcfce7"/>
  <rect x="706" y="284" width="76" height="90" rx="14" fill="#ecfeff"/>
  <circle cx="544" cy="240" r="40" fill="#dcfce7"/>
  <rect x="506" y="284" width="76" height="90" rx="14" fill="#ecfeff"/>
  <rect x="98" y="352" width="300" height="54" rx="12" fill="#f1f5f9"/>
  <text x="126" y="387" fill="#1e293b" font-size="24" font-family="Arial, sans-serif" font-weight="700">Live Mentor Session</text>
</svg>
