<svg width="900" height="520" viewBox="0 0 900 520" xmlns="http://www.w3.org/2000/svg" role="img" aria-labelledby="title desc">
  <title id="title">Scholarship success illustration</title>
  <desc id="desc">Student receiving scholarship support and graduation achievement.</desc>
  <defs>
    <linearGradient id="bg" x1="0" y1="0" x2="1" y2="1">
      <stop offset="0%" stop-color="#e0f2fe"/>
      <stop offset="100%" stop-color="#dcfce7"/>
    </linearGradient>
  </defs>
  <rect width="900" height="520" rx="26" fill="url(#bg)"/>
  <rect x="58" y="70" width="310" height="380" rx="22" fill="#ffffff" stroke="#bfdbfe" stroke-width="3"/>
  <circle cx="213" cy="178" r="56" fill="#dbeafe"/>
  <rect x="140" y="248" width="146" height="140" rx="16" fill="#eff6ff"/>
  <rect x="446" y="110" width="392" height="300" rx="24" fill="#ffffff" stroke="#a7f3d0" stroke-width="3"/>
  <rect x="476" y="146" width="332" height="58" rx="12" fill="#ecfeff"/>
  <rect x="476" y="224" width="280" height="34" rx="10" fill="#f1f5f9"/>
  <rect x="476" y="272" width="240" height="34" rx="10" fill="#f1f5f9"/>
  <rect x="476" y="320" width="180" height="52" rx="12" fill="#0f766e"/>
  <text x="516" y="354" fill="#ffffff" font-size="26" font-family="Arial, sans-serif" font-weight="700">Scholarship</text>
  <path d="M213 135l66 28-66 28-66-28 66-28z" fill="#1d4ed8"/>
  <path d="M157 176v34c0 25 28 45 56 45s56-20 56-45v-34" fill="#2563eb"/>
  <circle cx="666" cy="80" r="36" fill="#f59e0b"/>
  <text x="614" y="90" fill="#111827" font-size="22" font-family="Arial, sans-serif" font-weight="700">100%</text>
</svg>
